<svg width="30" height="30" viewBox="0 0 30 30" fill="none" xmlns="http://www.w3.org/2000/svg">
<path d="M30 3.33333V26.6667C30 28.5076 28.5076 30 26.6667 30H20.4167C19.9564 30 19.5833 29.6269 19.5833 29.1667V19.1667H23.4833C23.8794 19.1667 24.2208 18.8881 24.3 18.5L24.9 15.5C24.9248 15.3788 24.8944 15.2529 24.8171 15.1563C24.7399 15.0597 24.6237 15.0024 24.5 15H19.5833V9.58333C19.5833 9.35321 19.7699 9.16667 20 9.16667H24.1667C24.6269 9.16667 25 8.79357 25 8.33333V5.83333C25 5.3731 24.6269 5 24.1667 5H20C17.2386 5 15 7.23858 15 10V15H12.95C12.4898 15 12.1167 15.3731 12.1167 15.8333V18.3333C12.1167 18.7936 12.4898 19.1667 12.95 19.1667H15V29.1667C15 29.6269 14.6269 30 14.1667 30H3.33333C1.49238 30 0 28.5076 0 26.6667V3.33333C0 1.49238 1.49238 0 3.33333 0H26.6667C28.5076 0 30 1.49238 30 3.33333Z" fill="white"/>
</svg>
