<svg width="27" height="27" viewBox="0 0 27 27" fill="none" xmlns="http://www.w3.org/2000/svg">
<path d="M13.5 0.583328C6.36633 0.583328 0.583344 6.36632 0.583344 13.5C0.583344 20.6337 6.36633 26.4167 13.5 26.4167C20.6337 26.4167 26.4167 20.6337 26.4167 13.5C26.4167 10.0743 25.0558 6.78888 22.6335 4.36653C20.2111 1.94419 16.9257 0.583328 13.5 0.583328ZM13.5 4.45833C15.6401 4.45833 17.375 6.19323 17.375 8.33333C17.375 10.4734 15.6401 12.2083 13.5 12.2083C11.3599 12.2083 9.62501 10.4734 9.62501 8.33333C9.62501 6.19323 11.3599 4.45833 13.5 4.45833ZM20.7592 18.8733C19.0535 21.1704 16.3611 22.5246 13.5 22.5246C10.6389 22.5246 7.94657 21.1704 6.24084 18.8733C5.98149 18.4901 5.947 17.9973 6.15043 17.5817L6.42168 17.0133C7.0609 15.6584 8.42392 14.7933 9.92209 14.7917H17.0779C18.5551 14.7936 19.9026 15.6352 20.5525 16.9617L20.8496 17.5687C21.0581 17.9879 21.0235 18.487 20.7592 18.8733Z" fill="#054152"/>
</svg>
