<svg width="37" height="37" viewBox="0 0 37 37" fill="none" xmlns="http://www.w3.org/2000/svg">
<path d="M26.3333 0.875H10.6667C5.25888 0.875 0.875 5.25888 0.875 10.6667V26.3333C0.875 31.7411 5.25888 36.125 10.6667 36.125H26.3333C31.7411 36.125 36.125 31.7411 36.125 26.3333V10.6667C36.125 5.25888 31.7411 0.875 26.3333 0.875ZM32.6979 26.3333C32.6872 29.8439 29.8439 32.6872 26.3333 32.6979H10.6667C7.15607 32.6872 4.31284 29.8439 4.30208 26.3333V10.6667C4.31284 7.15607 7.15607 4.31284 10.6667 4.30208H26.3333C29.8439 4.31284 32.6872 7.15607 32.6979 10.6667V26.3333ZM29.7604 9.19792C29.7604 10.2795 28.8836 11.1562 27.8021 11.1562C26.7205 11.1562 25.8438 10.2795 25.8438 9.19792C25.8438 8.11636 26.7205 7.23958 27.8021 7.23958C28.8836 7.23958 29.7604 8.11636 29.7604 9.19792ZM18.5 9.6875C13.633 9.6875 9.6875 13.633 9.6875 18.5C9.6875 23.367 13.633 27.3125 18.5 27.3125C23.367 27.3125 27.3125 23.367 27.3125 18.5C27.3177 16.1612 26.3909 13.9167 24.7371 12.2629C23.0833 10.6091 20.8388 9.68229 18.5 9.6875ZM18.5 23.8854C15.5257 23.8854 13.1146 21.4743 13.1146 18.5C13.1146 15.5257 15.5257 13.1146 18.5 13.1146C21.4743 13.1146 23.8854 15.5257 23.8854 18.5C23.8854 21.4743 21.4743 23.8854 18.5 23.8854Z" fill="white"/>
</svg>
