<svg width="34" height="29" viewBox="0 0 34 29" fill="none" xmlns="http://www.w3.org/2000/svg">
<path d="M33.6166 4.77298C32.7565 5.92022 31.7169 6.92098 30.5379 7.73659C30.5379 8.03628 30.5379 8.33597 30.5379 8.65231C30.5473 14.0947 28.3734 19.3132 24.5035 23.138C20.6336 26.9628 15.3914 29.0739 9.95219 28.998C6.80764 29.0085 3.70335 28.2905 0.882503 26.9002C0.730403 26.8338 0.632301 26.6833 0.632878 26.5173V26.3341C0.632878 26.095 0.826597 25.9012 1.06556 25.9012C4.15658 25.7993 7.13733 24.7276 9.58607 22.8377C6.78827 22.7814 4.27096 21.1239 3.11248 18.5754C3.05396 18.4362 3.07218 18.2766 3.16056 18.1542C3.24893 18.0317 3.39469 17.9642 3.54516 17.976C4.39548 18.0615 5.25429 17.9824 6.07469 17.743C2.98615 17.1018 0.665457 14.5378 0.333329 11.3995C0.321525 11.2489 0.388991 11.1031 0.511355 11.0147C0.633719 10.9263 0.793292 10.9081 0.932428 10.9666C1.76126 11.3323 2.65598 11.5249 3.56181 11.5327C0.855511 9.75641 -0.313428 6.37787 0.716087 3.30782C0.822357 3.0095 1.07767 2.78912 1.38821 2.72766C1.69874 2.66621 2.01869 2.77275 2.23047 3.00813C5.88245 6.89492 10.9003 9.21104 16.2261 9.46814C16.0897 8.92379 16.0226 8.36438 16.0264 7.80319C16.0762 4.8606 17.8969 2.23928 20.6361 1.16644C23.3753 0.0935951 26.4909 0.781551 28.5242 2.90823C29.9103 2.64418 31.2503 2.17861 32.5016 1.52632C32.5933 1.46909 32.7095 1.46909 32.8011 1.52632C32.8583 1.61802 32.8583 1.73431 32.8011 1.82601C32.1951 3.21392 31.1712 4.378 29.8722 5.15592C31.0097 5.02401 32.1271 4.75569 33.2005 4.35674C33.2909 4.29522 33.4097 4.29522 33.5001 4.35674C33.5758 4.39138 33.6324 4.45762 33.6549 4.53782C33.6773 4.61802 33.6633 4.70404 33.6166 4.77298Z" fill="white"/>
</svg>
